<?xml version="1.0" encoding="utf-8"?>
<!-- Generator: Adobe Illustrator 27.5.0, SVG Export Plug-In . SVG Version: 6.00 Build 0)  -->
<svg version="1.1" xmlns="http://www.w3.org/2000/svg" xmlns:xlink="http://www.w3.org/1999/xlink" x="0px" y="0px"
	 viewBox="0 0 500 500" style="enable-background:new 0 0 500 500;" xml:space="preserve">
<g id="BACKGROUND">
	<rect style="fill:#95C4C2;" width="500" height="343.486"/>
	<path style="fill:#369688;" d="M499.033,321.849v-58.535c-16.915,3.079-32.159,16.297-36.012,33.232
		c-6.628-8.205-20.047-8.337-28.615-2.185c-8.568,6.152-12.798,16.889-13.895,27.38c-12.325-12.864-35.163-13.498-48.182-1.337
		c1.034-9.144-3.434-18.695-11.114-23.764c-7.68-5.069-18.219-5.42-26.22-0.875c-2.039-9.347-9.823-17.187-19.156-19.294
		c-9.332-2.107-19.729,1.629-25.586,9.194c-0.229-11.323-12.425-20.183-23.634-18.564c-11.209,1.619-20.001,11.872-21.851,23.045
		c-4.383-6.362-14.197-7.136-20.778-3.089c-6.581,4.047-10.253,11.628-11.775,19.203c-1.458-10.654-11.45-19.464-22.202-19.576
		c-10.752-0.112-20.926,8.487-22.606,19.108c-3.033-11.295-14.575-19.67-26.253-19.049c-11.678,0.62-22.268,10.171-24.088,21.723
		c-10.796-10.007-28.526-11.506-40.849-3.455c-2.47-16.711-24.643-26.79-38.858-17.664c-5.894-13.67-24.575-18.995-37.531-12.542
		v148.243c0.055,0,0.117,0,0.172,0.001V500h500V321.849H499.033z"/>
</g>
<g id="OBJECTS">
	<g>
		<path style="fill:#FFFFFF;" d="M444.973,78.797c5.599-0.024,11.199-0.087,16.805-0.206c0.431-3.942-0.906-8.045-3.575-10.977
			c-2.67-2.933-6.629-4.647-10.594-4.588c-0.576-4.589-2.12-9.222-5.339-12.543c-6.751-6.965-15.565-3.713-21.358,2.369
			c-3.329-11.981-8.384-25.792-20.332-29.238c-7.216-2.081-15.291,0.606-20.731,5.783c-5.44,5.177-8.457,12.516-9.558,19.945
			c-4.535-3.843-11.171-5.027-16.755-2.991c-5.585,2.036-9.901,7.214-10.899,13.073c-9.472-6.463-24.356-2.259-29.049,8.203
			c-6.575,0.385-14.657,3.264-15.025,11.32c12.389,0,21.932-0.563,32.596-0.563c15.665,0,31.33,0,46.995,0
			C400.497,78.383,422.717,78.894,444.973,78.797z"/>
		<path style="fill:#FFFFFF;" d="M57.863,68.336c-4.402-0.019-8.806-0.069-13.214-0.162c-0.339-3.1,0.712-6.326,2.811-8.631
			c2.099-2.306,5.212-3.654,8.33-3.607c0.453-3.608,1.667-7.252,4.198-9.863c5.308-5.476,12.239-2.92,16.794,1.863
			c2.618-9.421,6.592-20.281,15.987-22.99c5.674-1.636,12.024,0.477,16.301,4.547c4.278,4.071,6.65,9.842,7.516,15.683
			c3.566-3.021,8.784-3.953,13.175-2.352c4.391,1.601,7.785,5.672,8.57,10.279c7.448-5.081,19.152-1.777,22.842,6.45
			c5.17,0.303,11.525,2.566,11.815,8.901c-9.741,0-17.245-0.443-25.631-0.443c-12.318,0-24.635,0-36.953,0
			C92.835,68.011,75.363,68.413,57.863,68.336z"/>
	</g>
	<g>
		<g>
			<defs>
				<rect id="SVGID_1_" x="423.012" y="104.568" width="76.021" height="261.85"/>
			</defs>
			<clipPath id="SVGID_00000176004071565357098770000008697302585258040747_">
				<use xlink:href="#SVGID_1_"  style="overflow:visible;"/>
			</clipPath>
			<g style="clip-path:url(#SVGID_00000176004071565357098770000008697302585258040747_);">
				<path style="fill:#369688;" d="M445.796,132.087c-8.018,10.197-10.841,23.857-9.447,36.753
					c0.737,6.824,2.577,13.633,1.804,20.453c-1.377,12.162-10.846,22.525-11.098,34.762c-0.169,8.253,4.111,16.235,10.39,21.594
					c6.279,5.359,14.368,8.282,22.545,9.41c10.061,1.387,20.646,0.113,29.602-4.676c8.956-4.789,16.102-13.292,18.21-23.227
					c2.18-10.271-1.021-20.941-5.451-30.46c-3.258-7.002-7.265-13.92-7.984-21.609c-0.475-5.075,0.526-10.155,1.047-15.226
					c1.007-9.805,0.022-20.321-5.673-28.366C479.218,116.628,456.305,118.721,445.796,132.087z"/>
				<polygon style="fill:#D8D8D8;" points="471.099,193.734 468.432,344.561 459.896,343.612 466.357,192.785 458.77,184.724 
					461.615,180.456 468.254,188.517 472.048,170.497 476.79,173.343 				"/>
			</g>
		</g>
		<g>
			<defs>
				
					<rect id="SVGID_00000029034854858637316750000013461807709649109644_" x="-0.172" y="113.859" width="78.555" height="227.219"/>
			</defs>
			<clipPath id="SVGID_00000037652083953332711530000012585241713636028339_">
				<use xlink:href="#SVGID_00000029034854858637316750000013461807709649109644_"  style="overflow:visible;"/>
			</clipPath>
			<g style="clip-path:url(#SVGID_00000037652083953332711530000012585241713636028339_);">
				<path style="fill:#369688;" d="M12.476,132.087c-8.018,10.197-10.841,23.857-9.447,36.753
					c0.737,6.824,2.577,13.633,1.804,20.453c-1.377,12.162-10.847,22.525-11.098,34.762c-0.169,8.253,4.111,16.235,10.39,21.594
					s14.368,8.282,22.545,9.41c10.061,1.387,20.646,0.113,29.602-4.676c8.956-4.789,16.102-13.292,18.21-23.227
					c2.18-10.271-1.021-20.941-5.451-30.46c-3.258-7.002-7.265-13.92-7.984-21.609c-0.475-5.075,0.526-10.155,1.047-15.226
					c1.007-9.805,0.022-20.321-5.673-28.366C45.898,116.628,22.985,118.721,12.476,132.087z"/>
				<polygon style="fill:#D8D8D8;" points="31.14,193.734 33.808,344.561 42.343,343.612 35.882,192.785 43.47,184.724 
					40.624,180.456 33.985,188.517 30.192,170.497 25.45,173.343 				"/>
			</g>
		</g>
	</g>
	<g>
		<g>
			<path style="fill:#D8D8D8;" d="M69.834,338.342l57.952-19.772h242.948l58.074,19.772
				C428.807,338.342,69.321,337.829,69.834,338.342z"/>
			<path style="fill:#D8D8D8;" d="M78.65,105.686l49.237,53.337h242.948l49.462-53.337
				C420.297,105.686,77.918,104.954,78.65,105.686z"/>
			<rect x="69.834" y="338.342" style="fill:#182023;" width="358.974" height="30.61"/>
			<g>
				
					<rect x="73.179" y="116.795" transform="matrix(0.6016 -0.7988 0.7988 0.6016 -58.7961 116.7023)" style="fill:#182023;" width="28.836" height="1"/>
				
					<rect x="87.096" y="102.874" transform="matrix(0.8083 -0.5887 0.5887 0.8083 -52.2645 74.0505)" style="fill:#182023;" width="1" height="28.841"/>
				
					<rect x="90.163" y="116.794" transform="matrix(0.6016 -0.7988 0.7988 0.6016 -52.0289 130.2784)" style="fill:#182023;" width="28.836" height="1"/>
				
					<rect x="104.08" y="102.874" transform="matrix(0.8083 -0.5887 0.5887 0.8083 -49.0093 84.0492)" style="fill:#182023;" width="1" height="28.841"/>
				
					<rect x="107.147" y="116.794" transform="matrix(0.6016 -0.7988 0.7988 0.6016 -45.2616 143.8459)" style="fill:#182023;" width="28.836" height="1"/>
				
					<rect x="121.065" y="102.874" transform="matrix(0.8083 -0.5887 0.5887 0.8083 -45.7541 94.0482)" style="fill:#182023;" width="1" height="28.841"/>
				
					<rect x="124.131" y="116.795" transform="matrix(0.6016 -0.7988 0.7988 0.6016 -38.4967 157.4027)" style="fill:#182023;" width="28.836" height="1"/>
				
					<rect x="138.049" y="102.874" transform="matrix(0.8083 -0.5887 0.5887 0.8083 -42.4989 104.0469)" style="fill:#182023;" width="1" height="28.841"/>
				
					<rect x="141.115" y="116.795" transform="matrix(0.6016 -0.7988 0.7988 0.6016 -31.7303 170.9695)" style="fill:#182023;" width="28.836" height="1"/>
				
					<rect x="155.032" y="102.874" transform="matrix(0.8083 -0.5887 0.5887 0.8083 -39.2438 114.0457)" style="fill:#182023;" width="1" height="28.841"/>
				
					<rect x="158.099" y="116.794" transform="matrix(0.6016 -0.7988 0.7988 0.6016 -24.9638 184.5364)" style="fill:#182023;" width="28.836" height="1"/>
				
					<rect x="172.017" y="102.874" transform="matrix(0.8083 -0.5887 0.5887 0.8083 -35.9887 124.0416)" style="fill:#182023;" width="1" height="28.84"/>
				
					<rect x="175.083" y="116.794" transform="matrix(0.6016 -0.7988 0.7988 0.6016 -18.1924 198.1158)" style="fill:#182023;" width="28.836" height="1"/>
				
					<rect x="189.001" y="102.874" transform="matrix(0.8083 -0.5887 0.5887 0.8083 -32.7334 134.0434)" style="fill:#182023;" width="1" height="28.841"/>
				
					<rect x="192.067" y="116.794" transform="matrix(0.6016 -0.7988 0.7988 0.6016 -11.4252 211.6831)" style="fill:#182023;" width="28.836" height="1"/>
				
					<rect x="205.985" y="102.874" transform="matrix(0.8083 -0.5887 0.5887 0.8083 -29.4782 144.0421)" style="fill:#182023;" width="1" height="28.841"/>
				
					<rect x="209.051" y="116.794" transform="matrix(0.6016 -0.7988 0.7988 0.6016 -4.6644 225.2368)" style="fill:#182023;" width="28.836" height="1"/>
				
					<rect x="222.969" y="102.874" transform="matrix(0.8083 -0.5887 0.5887 0.8083 -26.223 154.0411)" style="fill:#182023;" width="1" height="28.841"/>
				
					<rect x="226.035" y="116.795" transform="matrix(0.6016 -0.7988 0.7988 0.6016 2.1016 238.8027)" style="fill:#182023;" width="28.836" height="1"/>
				
					<rect x="239.953" y="102.874" transform="matrix(0.8083 -0.5887 0.5887 0.8083 -22.9678 164.0398)" style="fill:#182023;" width="1" height="28.841"/>
				
					<rect x="243.019" y="116.795" transform="matrix(0.6016 -0.7988 0.7988 0.6016 8.8686 252.3707)" style="fill:#182023;" width="28.836" height="1"/>
				
					<rect x="256.937" y="102.874" transform="matrix(0.8083 -0.5887 0.5887 0.8083 -19.7126 174.0385)" style="fill:#182023;" width="1" height="28.841"/>
				
					<rect x="260.003" y="116.795" transform="matrix(0.6016 -0.7988 0.7988 0.6016 15.635 265.9373)" style="fill:#182023;" width="28.835" height="1"/>
				
					<rect x="273.921" y="102.874" transform="matrix(0.8083 -0.5887 0.5887 0.8083 -16.4565 184.0414)" style="fill:#182023;" width="1" height="28.841"/>
				
					<rect x="276.987" y="116.795" transform="matrix(0.6016 -0.7988 0.7988 0.6016 22.4014 279.5041)" style="fill:#182023;" width="28.836" height="1"/>
				
					<rect x="290.905" y="102.874" transform="matrix(0.8083 -0.5887 0.5887 0.8083 -13.2034 194.0319)" style="fill:#182023;" width="1" height="28.84"/>
				
					<rect x="293.971" y="116.794" transform="matrix(0.6016 -0.7988 0.7988 0.6016 29.1777 293.0865)" style="fill:#182023;" width="28.836" height="1"/>
				
					<rect x="307.889" y="102.874" transform="matrix(0.8083 -0.5887 0.5887 0.8083 -9.948 204.0316)" style="fill:#182023;" width="1" height="28.84"/>
				
					<rect x="310.955" y="116.794" transform="matrix(0.6016 -0.7988 0.7988 0.6016 35.9344 306.6378)" style="fill:#182023;" width="28.835" height="1"/>
				
					<rect x="324.873" y="102.874" transform="matrix(0.8083 -0.5887 0.5887 0.8083 -6.6905 214.0385)" style="fill:#182023;" width="1" height="28.841"/>
				
					<rect x="327.939" y="116.795" transform="matrix(0.6016 -0.7988 0.7988 0.6016 42.7008 320.2045)" style="fill:#182023;" width="28.836" height="1"/>
				
					<rect x="341.857" y="102.874" transform="matrix(0.8083 -0.5887 0.5887 0.8083 -3.4382 224.0278)" style="fill:#182023;" width="1" height="28.84"/>
				
					<rect x="344.923" y="116.794" transform="matrix(0.6016 -0.7988 0.7988 0.6016 49.4687 333.7735)" style="fill:#182023;" width="28.836" height="1"/>
				
					<rect x="358.841" y="102.874" transform="matrix(0.8083 -0.5887 0.5887 0.8083 -0.1831 234.0265)" style="fill:#182023;" width="1" height="28.84"/>
				
					<rect x="361.908" y="116.795" transform="matrix(0.6016 -0.7988 0.7988 0.6016 56.234 347.3387)" style="fill:#182023;" width="28.836" height="1"/>
				
					<rect x="375.825" y="102.874" transform="matrix(0.8083 -0.5887 0.5887 0.8083 3.0755 244.0355)" style="fill:#182023;" width="1" height="28.841"/>
				
					<rect x="378.891" y="116.795" transform="matrix(0.6016 -0.7988 0.7988 0.6016 62.9986 360.9029)" style="fill:#182023;" width="28.836" height="1"/>
				
					<rect x="392.81" y="102.874" transform="matrix(0.8083 -0.5887 0.5887 0.8083 6.3309 254.0347)" style="fill:#182023;" width="1" height="28.841"/>
				
					<rect x="395.876" y="116.794" transform="matrix(0.6016 -0.7988 0.7988 0.6016 69.7823 374.4926)" style="fill:#182023;" width="28.836" height="1"/>
				
					<rect x="409.793" y="102.874" transform="matrix(0.8083 -0.5887 0.5887 0.8083 9.5824 264.0234)" style="fill:#182023;" width="1" height="28.84"/>
				<path style="fill:#182023;" d="M421.296,129.721H77.65v-25.035h343.647V129.721z M79.65,127.72h339.647v-21.035H79.65V127.72z"
					/>
			</g>
			<g>
				<path style="fill:#182023;" d="M102.959,339.505H77.924v-211.51h25.035V339.505z M79.924,337.505h21.035v-207.51H79.924V337.505
					z"/>
				
					<rect x="89.941" y="122.742" transform="matrix(0.606 -0.7954 0.7954 0.606 -73.5206 126.0014)" style="fill:#182023;" width="1.001" height="28.959"/>
				
					<rect x="75.962" y="136.722" transform="matrix(0.8051 -0.5931 0.5931 0.8051 -63.7625 80.3833)" style="fill:#182023;" width="28.96" height="0.999"/>
				
					<rect x="89.941" y="140.293" transform="matrix(0.606 -0.7954 0.7954 0.606 -87.4806 132.9128)" style="fill:#182023;" width="1.001" height="28.959"/>
				
					<rect x="75.962" y="154.273" transform="matrix(0.8051 -0.5931 0.5931 0.8051 -74.172 83.8035)" style="fill:#182023;" width="28.959" height="0.999"/>
				
					<rect x="89.941" y="157.843" transform="matrix(0.606 -0.7954 0.7954 0.606 -101.4413 139.8295)" style="fill:#182023;" width="1.001" height="28.959"/>
				
					<rect x="75.962" y="171.823" transform="matrix(0.8051 -0.5931 0.5931 0.8051 -84.5815 87.2238)" style="fill:#182023;" width="28.959" height="0.999"/>
				
					<rect x="89.941" y="175.394" transform="matrix(0.606 -0.7954 0.7954 0.606 -115.401 146.741)" style="fill:#182023;" width="1.001" height="28.959"/>
				
					<rect x="75.962" y="189.374" transform="matrix(0.8051 -0.5932 0.5932 0.8051 -94.9967 90.655)" style="fill:#182023;" width="28.959" height="0.999"/>
				
					<rect x="89.941" y="192.944" transform="matrix(0.606 -0.7954 0.7954 0.606 -129.3615 153.6552)" style="fill:#182023;" width="1.001" height="28.959"/>
				
					<rect x="75.962" y="206.924" transform="matrix(0.8051 -0.5931 0.5931 0.8051 -105.4003 94.0642)" style="fill:#182023;" width="28.959" height="0.999"/>
				
					<rect x="89.941" y="210.495" transform="matrix(0.606 -0.7954 0.7954 0.606 -143.3225 160.5725)" style="fill:#182023;" width="1.001" height="28.959"/>
				
					<rect x="75.962" y="224.475" transform="matrix(0.8051 -0.5931 0.5931 0.8051 -115.8095 97.4844)" style="fill:#182023;" width="28.959" height="0.999"/>
				
					<rect x="89.941" y="228.045" transform="matrix(0.606 -0.7954 0.7954 0.606 -157.2836 167.49)" style="fill:#182023;" width="1" height="28.959"/>
				
					<rect x="75.962" y="242.026" transform="matrix(0.8051 -0.5931 0.5931 0.8051 -126.2193 100.9047)" style="fill:#182023;" width="28.96" height="0.999"/>
				
					<rect x="89.941" y="245.596" transform="matrix(0.606 -0.7954 0.7954 0.606 -171.2418 174.3973)" style="fill:#182023;" width="1" height="28.96"/>
				
					<rect x="75.962" y="259.576" transform="matrix(0.8051 -0.5931 0.5931 0.8051 -136.6284 104.3249)" style="fill:#182023;" width="28.959" height="0.999"/>
				
					<rect x="89.942" y="263.147" transform="matrix(0.606 -0.7954 0.7954 0.606 -185.2025 181.3123)" style="fill:#182023;" width="1" height="28.959"/>
				
					<rect x="75.962" y="277.127" transform="matrix(0.8051 -0.5931 0.5931 0.8051 -147.0379 107.7451)" style="fill:#182023;" width="28.959" height="0.999"/>
				
					<rect x="89.942" y="280.697" transform="matrix(0.606 -0.7954 0.7954 0.606 -199.1626 188.2257)" style="fill:#182023;" width="1" height="28.959"/>
				
					<rect x="75.962" y="294.677" transform="matrix(0.8051 -0.5931 0.5931 0.8051 -157.4475 111.1654)" style="fill:#182023;" width="28.959" height="0.999"/>
				
					<rect x="89.942" y="298.248" transform="matrix(0.606 -0.7954 0.7954 0.606 -213.123 195.1399)" style="fill:#182023;" width="1" height="28.959"/>
				
					<rect x="75.962" y="312.228" transform="matrix(0.8051 -0.5932 0.5932 0.8051 -167.8688 114.601)" style="fill:#182023;" width="28.959" height="0.999"/>
				
					<rect x="89.942" y="315.799" transform="matrix(0.606 -0.7954 0.7954 0.606 -227.0866 202.0626)" style="fill:#182023;" width="1" height="28.959"/>
				
					<rect x="75.961" y="329.778" transform="matrix(0.8051 -0.5931 0.5931 0.8051 -178.2663 118.0059)" style="fill:#182023;" width="28.96" height="1"/>
			</g>
			<g>
				<path style="fill:#182023;" d="M421.063,339.505h-25.035v-211.51h25.035V339.505z M398.028,337.505h21.035v-207.51h-21.035
					V337.505z"/>
				
					<rect x="408.046" y="122.742" transform="matrix(0.606 -0.7954 0.7954 0.606 51.8016 379.0337)" style="fill:#182023;" width="1" height="28.959"/>
				
					<rect x="394.066" y="136.722" transform="matrix(0.8046 -0.5938 0.5938 0.8046 -1.6645 269.3845)" style="fill:#182023;" width="28.959" height="1"/>
				
					<rect x="408.046" y="140.293" transform="matrix(0.606 -0.7954 0.7954 0.606 37.8374 385.9419)" style="fill:#182023;" width="1" height="28.959"/>
				
					<rect x="394.066" y="154.272" transform="matrix(0.8046 -0.5938 0.5938 0.8046 -12.0853 272.8131)" style="fill:#182023;" width="28.959" height="1"/>
				
					<rect x="408.046" y="157.843" transform="matrix(0.606 -0.7954 0.7954 0.606 23.8803 392.8613)" style="fill:#182023;" width="1" height="28.959"/>
				
					<rect x="394.066" y="171.823" transform="matrix(0.8046 -0.5938 0.5938 0.8046 -22.5062 276.2417)" style="fill:#182023;" width="28.959" height="1"/>
				
					<rect x="408.046" y="175.394" transform="matrix(0.606 -0.7954 0.7954 0.606 9.917 399.7701)" style="fill:#182023;" width="1" height="28.959"/>
				
					<rect x="394.066" y="189.373" transform="matrix(0.8046 -0.5938 0.5938 0.8046 -32.9215 279.6965)" style="fill:#182023;" width="28.959" height="1"/>
				
					<rect x="408.046" y="192.944" transform="matrix(0.606 -0.7954 0.7954 0.606 -4.0434 406.6843)" style="fill:#182023;" width="1" height="28.959"/>
				
					<rect x="394.066" y="206.924" transform="matrix(0.8046 -0.5938 0.5938 0.8046 -43.3478 283.0989)" style="fill:#182023;" width="28.959" height="1"/>
				
					<rect x="408.046" y="210.495" transform="matrix(0.606 -0.7954 0.7954 0.606 -18.001 413.6042)" style="fill:#182023;" width="1" height="28.959"/>
				
					<rect x="394.066" y="224.474" transform="matrix(0.8046 -0.5938 0.5938 0.8046 -53.7684 286.5275)" style="fill:#182023;" width="28.959" height="1"/>
				
					<rect x="408.046" y="228.045" transform="matrix(0.606 -0.7954 0.7954 0.606 -31.9586 420.5244)" style="fill:#182023;" width="1" height="28.959"/>
				
					<rect x="394.066" y="242.025" transform="matrix(0.8046 -0.5938 0.5938 0.8046 -64.1895 289.9562)" style="fill:#182023;" width="28.959" height="1"/>
				
					<rect x="408.046" y="245.596" transform="matrix(0.606 -0.7954 0.7954 0.606 -45.9237 427.4264)" style="fill:#182023;" width="0.999" height="28.96"/>
				
					<rect x="394.066" y="259.575" transform="matrix(0.8046 -0.5938 0.5938 0.8046 -74.6099 293.3847)" style="fill:#182023;" width="28.959" height="1"/>
				
					<rect x="408.046" y="263.147" transform="matrix(0.606 -0.7954 0.7954 0.606 -59.8838 434.3419)" style="fill:#182023;" width="0.999" height="28.959"/>
				
					<rect x="394.066" y="277.126" transform="matrix(0.8046 -0.5938 0.5938 0.8046 -85.0309 296.8134)" style="fill:#182023;" width="28.959" height="1"/>
				
					<rect x="408.046" y="280.697" transform="matrix(0.606 -0.7954 0.7954 0.606 -73.8446 441.2548)" style="fill:#182023;" width="0.999" height="28.959"/>
				
					<rect x="394.066" y="294.677" transform="matrix(0.8046 -0.5938 0.5938 0.8046 -95.4518 300.2421)" style="fill:#182023;" width="28.959" height="1"/>
				
					<rect x="408.046" y="298.248" transform="matrix(0.606 -0.7954 0.7954 0.606 -87.805 448.169)" style="fill:#182023;" width="0.999" height="28.959"/>
				
					<rect x="394.066" y="312.228" transform="matrix(0.8046 -0.5938 0.5938 0.8046 -105.8733 303.7013)" style="fill:#182023;" width="28.959" height="1"/>
				
					<rect x="408.046" y="315.799" transform="matrix(0.606 -0.7954 0.7954 0.606 -101.7616 455.097)" style="fill:#182023;" width="0.999" height="28.959"/>
				
					<rect x="394.066" y="329.778" transform="matrix(0.8046 -0.5938 0.5938 0.8046 -116.2933 307.0993)" style="fill:#182023;" width="28.959" height="1"/>
			</g>
			<g>
				<path style="fill:#182023;" d="M371.251,319.334h-19.014v-160.93h19.014V319.334z M353.719,317.851h16.049V159.887h-16.049
					V317.851z"/>
				
					<rect x="361.373" y="154.387" transform="matrix(0.606 -0.7954 0.7954 0.606 10.945 352.9109)" style="fill:#182023;" width="0.741" height="22.039"/>
				
					<rect x="350.724" y="165.035" transform="matrix(0.8046 -0.5938 0.5938 0.8046 -27.5415 247.1048)" style="fill:#182023;" width="22.04" height="0.741"/>
				
					<rect x="361.373" y="167.743" transform="matrix(0.606 -0.7954 0.7954 0.606 0.3179 358.1679)" style="fill:#182023;" width="0.741" height="22.04"/>
				
					<rect x="350.724" y="178.392" transform="matrix(0.8046 -0.5938 0.5938 0.8046 -35.4724 249.7142)" style="fill:#182023;" width="22.04" height="0.741"/>
				
					<rect x="361.373" y="181.1" transform="matrix(0.606 -0.7954 0.7954 0.606 -10.3047 363.434)" style="fill:#182023;" width="0.741" height="22.04"/>
				
					<rect x="350.724" y="191.749" transform="matrix(0.8047 -0.5937 0.5937 0.8047 -43.4081 252.2912)" style="fill:#182023;" width="22.039" height="0.741"/>
				
					<rect x="361.373" y="194.457" transform="matrix(0.606 -0.7954 0.7954 0.606 -20.9304 368.6933)" style="fill:#182023;" width="0.741" height="22.04"/>
				
					<rect x="350.724" y="205.106" transform="matrix(0.8047 -0.5937 0.5937 0.8047 -51.338 254.9)" style="fill:#182023;" width="22.04" height="0.741"/>
				
					<rect x="361.373" y="207.814" transform="matrix(0.606 -0.7954 0.7954 0.606 -31.5538 373.9582)" style="fill:#182023;" width="0.741" height="22.04"/>
				
					<rect x="350.724" y="218.463" transform="matrix(0.8046 -0.5938 0.5938 0.8046 -59.265 257.5425)" style="fill:#182023;" width="22.04" height="0.741"/>
				
					<rect x="361.373" y="221.17" transform="matrix(0.606 -0.7954 0.7954 0.606 -42.1799 379.216)" style="fill:#182023;" width="0.741" height="22.04"/>
				
					<rect x="350.724" y="231.82" transform="matrix(0.8047 -0.5937 0.5937 0.8047 -67.1979 260.1175)" style="fill:#182023;" width="22.04" height="0.741"/>
				
					<rect x="361.373" y="234.527" transform="matrix(0.606 -0.7955 0.7955 0.606 -52.8003 384.49)" style="fill:#182023;" width="0.741" height="22.039"/>
				
					<rect x="350.724" y="245.176" transform="matrix(0.8046 -0.5938 0.5938 0.8046 -75.1265 262.7613)" style="fill:#182023;" width="22.039" height="0.741"/>
				
					<rect x="361.374" y="247.884" transform="matrix(0.6061 -0.7954 0.7954 0.6061 -63.4308 389.734)" style="fill:#182023;" width="0.741" height="22.04"/>
				
					<rect x="350.724" y="258.534" transform="matrix(0.8047 -0.5937 0.5937 0.8047 -83.0579 265.3351)" style="fill:#182023;" width="22.04" height="0.741"/>
				
					<rect x="361.374" y="261.241" transform="matrix(0.606 -0.7954 0.7954 0.606 -74.0517 395.0085)" style="fill:#182023;" width="0.741" height="22.039"/>
				
					<rect x="350.724" y="271.89" transform="matrix(0.8047 -0.5937 0.5937 0.8047 -90.9879 267.9439)" style="fill:#182023;" width="22.039" height="0.741"/>
				
					<rect x="361.374" y="274.598" transform="matrix(0.606 -0.7954 0.7954 0.606 -84.6766 400.269)" style="fill:#182023;" width="0.741" height="22.04"/>
				
					<rect x="350.724" y="285.247" transform="matrix(0.8046 -0.5938 0.5938 0.8046 -98.919 270.5895)" style="fill:#182023;" width="22.039" height="0.741"/>
				
					<rect x="361.374" y="287.955" transform="matrix(0.6061 -0.7954 0.7954 0.6061 -95.3036 405.5213)" style="fill:#182023;" width="0.741" height="22.04"/>
				
					<rect x="350.724" y="298.604" transform="matrix(0.8047 -0.5937 0.5937 0.8047 -106.8478 273.1614)" style="fill:#182023;" width="22.04" height="0.741"/>
				
					<rect x="361.374" y="301.312" transform="matrix(0.606 -0.7954 0.7954 0.606 -105.9256 410.7951)" style="fill:#182023;" width="0.741" height="22.039"/>
				
					<rect x="350.724" y="311.961" transform="matrix(0.8046 -0.5938 0.5938 0.8046 -114.7806 275.8083)" style="fill:#182023;" width="22.04" height="0.741"/>
			</g>
			<g>
				<path style="fill:#182023;" d="M146.384,319.334H127.37v-160.93h19.014V319.334z M128.853,317.851h16.049V159.887h-16.049
					V317.851z"/>
				
					<rect x="136.506" y="154.387" transform="matrix(0.606 -0.7954 0.7954 0.606 -77.6456 174.0426)" style="fill:#182023;" width="0.741" height="22.039"/>
				
					<rect x="125.857" y="165.035" transform="matrix(0.8046 -0.5938 0.5938 0.8046 -71.4718 113.5867)" style="fill:#182023;" width="22.04" height="0.741"/>
				
					<rect x="136.506" y="167.743" transform="matrix(0.606 -0.7954 0.7954 0.606 -88.2702 179.3015)" style="fill:#182023;" width="0.741" height="22.04"/>
				
					<rect x="125.857" y="178.392" transform="matrix(0.8046 -0.5938 0.5938 0.8046 -79.4027 116.1962)" style="fill:#182023;" width="22.04" height="0.741"/>
				
					<rect x="136.506" y="181.1" transform="matrix(0.606 -0.7954 0.7954 0.606 -98.8947 184.5661)" style="fill:#182023;" width="0.741" height="22.04"/>
				
					<rect x="125.857" y="191.749" transform="matrix(0.8047 -0.5937 0.5937 0.8047 -87.3277 118.7876)" style="fill:#182023;" width="22.039" height="0.741"/>
				
					<rect x="136.506" y="194.457" transform="matrix(0.606 -0.7954 0.7954 0.606 -109.5191 189.8264)" style="fill:#182023;" width="0.741" height="22.04"/>
				
					<rect x="125.857" y="205.106" transform="matrix(0.8047 -0.5937 0.5937 0.8047 -95.2576 121.3964)" style="fill:#182023;" width="22.04" height="0.741"/>
				
					<rect x="136.506" y="207.814" transform="matrix(0.606 -0.7954 0.7954 0.606 -120.1437 195.0903)" style="fill:#182023;" width="0.741" height="22.04"/>
				
					<rect x="125.857" y="218.463" transform="matrix(0.8046 -0.5938 0.5938 0.8046 -103.1953 124.0244)" style="fill:#182023;" width="22.04" height="0.741"/>
				
					<rect x="136.506" y="221.17" transform="matrix(0.606 -0.7954 0.7954 0.606 -130.7679 200.3496)" style="fill:#182023;" width="0.741" height="22.04"/>
				
					<rect x="125.857" y="231.82" transform="matrix(0.8047 -0.5937 0.5937 0.8047 -111.1175 126.6139)" style="fill:#182023;" width="22.04" height="0.741"/>
				
					<rect x="136.507" y="234.527" transform="matrix(0.606 -0.7954 0.7954 0.606 -141.3935 205.6196)" style="fill:#182023;" width="0.741" height="22.039"/>
				
					<rect x="125.857" y="245.176" transform="matrix(0.8046 -0.5938 0.5938 0.8046 -119.0568 129.2432)" style="fill:#182023;" width="22.039" height="0.741"/>
				
					<rect x="136.507" y="247.884" transform="matrix(0.6061 -0.7954 0.7954 0.6061 -152.0163 210.8695)" style="fill:#182023;" width="0.741" height="22.04"/>
				
					<rect x="125.857" y="258.534" transform="matrix(0.8047 -0.5937 0.5937 0.8047 -126.9775 131.8315)" style="fill:#182023;" width="22.04" height="0.741"/>
				
					<rect x="136.507" y="261.241" transform="matrix(0.606 -0.7954 0.7954 0.606 -162.6423 216.1401)" style="fill:#182023;" width="0.741" height="22.039"/>
				
					<rect x="125.857" y="271.89" transform="matrix(0.8047 -0.5937 0.5937 0.8047 -134.9076 134.4403)" style="fill:#182023;" width="22.039" height="0.741"/>
				
					<rect x="136.507" y="274.598" transform="matrix(0.606 -0.7954 0.7954 0.606 -173.2665 221.4011)" style="fill:#182023;" width="0.741" height="22.04"/>
				
					<rect x="125.857" y="285.247" transform="matrix(0.8046 -0.5938 0.5938 0.8046 -142.8493 137.0715)" style="fill:#182023;" width="22.039" height="0.741"/>
				
					<rect x="136.507" y="287.955" transform="matrix(0.6061 -0.7954 0.7954 0.6061 -183.8896 226.6563)" style="fill:#182023;" width="0.741" height="22.04"/>
				
					<rect x="125.857" y="298.604" transform="matrix(0.8047 -0.5937 0.5937 0.8047 -150.7675 139.6579)" style="fill:#182023;" width="22.04" height="0.741"/>
				
					<rect x="136.507" y="301.312" transform="matrix(0.606 -0.7954 0.7954 0.606 -194.5161 231.9267)" style="fill:#182023;" width="0.741" height="22.039"/>
				
					<rect x="125.857" y="311.961" transform="matrix(0.8046 -0.5938 0.5938 0.8046 -158.7109 142.2903)" style="fill:#182023;" width="22.04" height="0.741"/>
			</g>
			<g>
				<rect x="146.07" y="128.995" style="fill:#182023;" width="13.163" height="20.476"/>
				<ellipse style="fill:#369688;" cx="152.652" cy="149.159" rx="6.604" ry="4.104"/>
			</g>
			<g>
				
					<rect x="102.871" y="190.259" transform="matrix(0.1219 -0.9925 0.9925 0.1219 -102.8923 284.6889)" style="fill:#182023;" width="13.163" height="20.476"/>
				<path style="fill:#E8505B;" d="M120.11,195.152c2.25,0.276,3.713,3.435,3.269,7.055c-0.445,3.62-2.629,6.33-4.879,6.054
					c-2.25-0.276-3.713-3.435-3.269-7.055C115.676,197.586,117.86,194.876,120.11,195.152z"/>
			</g>
			<g>
				
					<rect x="101.258" y="156.319" transform="matrix(0.3108 -0.9505 0.9505 0.3108 -83.9845 217.2907)" style="fill:#182023;" width="13.163" height="20.476"/>
				<path style="fill:#FFFFFF;" d="M119.327,163.365c2.154,0.704,2.982,4.086,1.849,7.552c-1.133,3.467-3.799,5.706-5.953,5.001
					c-2.154-0.704-2.982-4.086-1.849-7.552C114.507,164.899,117.172,162.66,119.327,163.365z"/>
			</g>
			<g>
				
					<rect x="382.345" y="190.259" transform="matrix(-0.1219 -0.9925 0.9925 -0.1219 237.3458 610.9673)" style="fill:#182023;" width="13.163" height="20.476"/>
				<path style="fill:#435282;" d="M378.27,195.152c-2.25,0.276-3.713,3.435-3.269,7.055c0.445,3.62,2.629,6.33,4.879,6.054
					c2.25-0.276,3.713-3.435,3.269-7.055C382.704,197.586,380.52,194.876,378.27,195.152z"/>
			</g>
			<g>
				
					<rect x="383.958" y="156.319" transform="matrix(-0.3108 -0.9505 0.9505 -0.3108 353.6099 589.5207)" style="fill:#182023;" width="13.163" height="20.476"/>
				<path style="fill:#E8505B;" d="M379.053,163.365c-2.155,0.704-2.982,4.086-1.849,7.552c1.134,3.467,3.799,5.706,5.954,5.001
					c2.154-0.704,2.982-4.086,1.849-7.552C383.873,164.899,381.207,162.66,379.053,163.365z"/>
			</g>
			<g>
				<rect x="194.7" y="128.995" style="fill:#182023;" width="13.163" height="20.476"/>
				<ellipse style="fill:#435282;" cx="201.282" cy="149.159" rx="6.604" ry="4.104"/>
			</g>
			<g>
				<rect x="243.33" y="128.995" style="fill:#182023;" width="13.163" height="20.476"/>
				<ellipse style="fill:#E8505B;" cx="249.911" cy="149.159" rx="6.604" ry="4.104"/>
			</g>
			<g>
				<rect x="291.96" y="128.995" style="fill:#182023;" width="13.163" height="20.476"/>
				<ellipse style="fill:#FFFFFF;" cx="298.541" cy="149.159" rx="6.604" ry="4.104"/>
			</g>
			<g>
				<rect x="340.589" y="128.995" style="fill:#182023;" width="13.163" height="20.476"/>
				<ellipse style="fill:#435282;" cx="347.171" cy="149.159" rx="6.604" ry="4.104"/>
			</g>
			<g>
				<path style="fill:#182023;" d="M147.773,335.945h-37.879c-2.06,0-3.73-1.67-3.73-3.73v-69.324c0-2.06,1.67-3.73,3.73-3.73
					h37.879c2.06,0,3.73,1.67,3.73,3.73v69.324C151.503,334.276,149.833,335.945,147.773,335.945z"/>
				<circle style="fill:#D8D8D8;" cx="128.833" cy="280.734" r="12.797"/>
				<circle style="fill:#D8D8D8;" cx="128.833" cy="313.276" r="14.697"/>
			</g>
			<g>
				<path style="fill:#182023;" d="M70.468,368.67H13.914c-2.06,0-3.73-1.67-3.73-3.73V263.988c0-2.06,1.67-3.73,3.73-3.73h56.554
					c2.06,0,3.73,1.67,3.73,3.73V364.94C74.198,367,72.528,368.67,70.468,368.67z"/>
				
					<ellipse transform="matrix(0.9212 -0.3891 0.3891 0.9212 -109.7812 39.3192)" style="fill:#D8D8D8;" cx="42.191" cy="290.717" rx="18.069" ry="18.069"/>
				
					<ellipse transform="matrix(0.1588 -0.9873 0.9873 0.1588 -296.8994 324.8516)" style="fill:#D8D8D8;" cx="42.191" cy="336.663" rx="20.751" ry="20.751"/>
			</g>
			<g>
				<path style="fill:#182023;" d="M485.347,368.67h-56.555c-2.06,0-3.73-1.67-3.73-3.73V263.988c0-2.06,1.67-3.73,3.73-3.73h56.555
					c2.06,0,3.73,1.67,3.73,3.73V364.94C489.077,367,487.407,368.67,485.347,368.67z"/>
				
					<ellipse transform="matrix(0.5653 -0.8249 0.8249 0.5653 -41.1091 503.4304)" style="fill:#D8D8D8;" cx="457.07" cy="290.717" rx="18.069" ry="18.069"/>
				
					<ellipse transform="matrix(0.7071 -0.7071 0.7071 0.7071 -104.184 421.8033)" style="fill:#D8D8D8;" cx="457.07" cy="336.663" rx="20.751" ry="20.751"/>
			</g>
			<g>
				<path style="fill:#182023;" d="M387.996,335.945h-37.879c-2.06,0-3.73-1.67-3.73-3.73v-69.324c0-2.06,1.67-3.73,3.73-3.73
					h37.879c2.06,0,3.73,1.67,3.73,3.73v69.324C391.726,334.276,390.056,335.945,387.996,335.945z"/>
				<circle style="fill:#D8D8D8;" cx="369.057" cy="280.734" r="12.797"/>
				<circle style="fill:#D8D8D8;" cx="369.057" cy="313.276" r="14.697"/>
			</g>
		</g>
		<g>
			<g>
				<path style="fill:#182023;" d="M323.809,288.458l6.719-18.099l-10.832,2.057c0,0-9.461,8.775-13.3,13.3
					c-3.839,4.525-7.267,8.364-6.033,13.437c1.234,5.073,12.066,25.092,12.066,25.092s2.814,0.321,4.748,0.41
					c-0.677-6.932-4.063-24.542-4.063-24.542L323.809,288.458z"/>
				<path style="fill:#E8505B;" d="M308.041,327.125c0,0,3.702,0,9.187,0.137c0.109-0.351,0.078-1.287-0.051-2.607
					c-1.934-0.089-4.748-0.41-4.748-0.41L308.041,327.125z"/>
			</g>
			<path style="fill:#F9BB94;" d="M333.681,255.414l3.839,1.508l2.331,9.049c0,0,0.96,0.686,2.468-0.274
				c1.508-0.96,2.331-8.912,2.605-11.655s-8.09-7.267-8.09-7.267L333.681,255.414z"/>
			<path style="fill:#182023;" d="M339.577,269.4c0,0,4.113,7.13,1.783,14.397c-2.331,7.267-8.227,16.865-8.227,16.865
				s11.38,24.955,11.243,26.189c-3.154,1.234-7.541,1.234-7.541,1.234l3.017-3.154c0,0-19.799-15.986-19.47-23.995
				c0.411-10.009,4.799-27.834,4.799-27.834L339.577,269.4z"/>
			<path style="fill:#182023;" d="M330.116,254.728c0,0,2.879,1.508,3.839,1.645c3.428-2.194,4.525-10.146,4.525-10.146
				s-11.106-6.856-20.019-4.936c-8.912,1.92-14.26,8.912-14.26,8.912s-1.675,1.904-3.337,4.978l7.724,7.362l7.13,6.033
				c0,0,0.274,2.057,0.549,6.856c3.976,0.274,14.123,0,24.818-5.21C340.126,264.738,330.116,254.728,330.116,254.728z"/>
			<path style="fill:#F9BB94;" d="M308.93,235.089l7.986,8.426c0,0,0.977,2.827-2.751,4.176c-3.154,1.142-4.708-0.321-4.708-0.321
				l-3.127-10.612L308.93,235.089z"/>
			<path style="fill:#FFFFFF;" d="M302.85,273.936c0,0,1.88-4.541,4.128-4.29c2.247,0.251,4.253,3.856,6.127,2.359
				c1.874-1.497,4.732-6.999,7.886-6.178c1.823,2.245-0.197,2.655-1.582,3.671c-1.385,1.016-2.507,2.965-2.361,4.052
				c10.107-5.093,27.777-12.585,27.777-12.585l-0.31-2.31c0,0,5.76-2.434,6.359-2.099c0.598,0.335,1.799,5.154,1.799,5.154
				l-36.065,15.773c0,0-1.249,0.998-0.061,2.637c1.189,1.639,3.58,0.903,3.925,1.41c0.345,0.507,0.491,1.594-1.067,2.357
				c-1.558,0.762-5.618-0.629-6.959-0.311s-1.773,3.282-4.264,4.308C305.691,288.91,299.97,284.422,302.85,273.936z"/>
			<path style="fill:#F9BB94;" d="M296.938,261.68c0,0-3.805,6.372-3.991,11.097c2.476,1.737,5.006,3.413,7.691,4.811
				c2.664,1.387,5.841,1.969,8.716,2.816c0.132,0.039,0.271,0.078,0.405,0.047c0.136-0.031,0.245-0.13,0.348-0.224
				c0.217-0.2,0.434-0.401,0.651-0.601c0.201-0.186,0.407-0.379,0.521-0.628c0.244-0.536-0.042-1.218-0.55-1.515
				c-0.509-0.297-1.168-0.25-1.695,0.014c-0.071,0.036-0.147,0.076-0.225,0.066c-0.06-0.008-0.111-0.044-0.16-0.078
				c-1.576-1.122-3.08-2.371-4.453-3.744c-0.37-0.365-2.797-2.47-2.55-3.031c0.067-0.151,2.717-6.166,2.717-6.166L296.938,261.68z"
				/>
			<path style="fill:#182023;" d="M293.797,262.931c3.046,3.281,10.127,4.66,10.127,4.66l3.98-6.876l-0.183-13.986
				C298.672,253.037,296.021,259.162,293.797,262.931z"/>
			<path style="fill:#F9BB94;" d="M336.972,264.326c0,0,0.548,3.154,1.645,3.565c1.097,0.411,3.428-0.686,3.428-0.686l-1.645-4.388
				C340.4,262.818,336.835,262.544,336.972,264.326z"/>
			<path style="fill:#E8505B;" d="M319.833,251.706c-0.305,6.211-0.823,13.979,0.274,15.066c1.097,1.087,1.92,0.155,2.331-3.106
				c0.411-3.262,0.274-12.115,0.137-15.843c-0.137-3.728-1.783-7.766-1.783-7.766l-2.742,0.466
				C318.05,240.523,320.107,246.115,319.833,251.706z"/>
			<path style="fill:#F9BB94;" d="M304.071,229.271c0,0-2.605,2.057-2.468,8.09c1.097,1.371,6.17,0.96,6.17,0.96
				s1.097-1.097,1.919-2.879C310.516,233.658,309.693,228.997,304.071,229.271z"/>
			<path style="fill:#E8505B;" d="M308.45,237.331c-0.043,0.135-0.065,0.235,0.038,0.328c1.386-0.411,3.307-2.652,3.792-4.019
				c1.151-3.246-1.728-9.075-5.61-6.06c-2.494-2.225-6.78,0.799-7.749,3.099c1.026,0.572,2.052,1.143,3.078,1.715l2.072-3.122
				c0,0,2.325,0.503,1.639,4.205l1.92,0.96C307.63,234.436,309.544,233.918,308.45,237.331z"/>
			<path style="fill:#E8505B;" d="M344.376,326.85c0.024-0.215-0.306-1.158-0.859-2.552c-1.504,0.592-2.81,0.777-3.813,0.786
				l-2.869,3l2.848-0.184C341.13,327.738,342.888,327.432,344.376,326.85z"/>
		</g>
		<g>
			<path style="fill:#231F20;" d="M245.654,283.659c0,0-12.066,7.678-12.34,8.501c-0.274,0.823,5.759,27.697,5.759,27.697
				l-4.357,2.583l9.019-1.761l-0.548-15.357l13.986-12.34L245.654,283.659z"/>
			<polygon style="fill:#231F20;" points="269.786,284.573 284.595,289.692 272.803,319.035 274.964,322.47 268.415,319.858 
				270.609,301.758 262.656,296.274 			"/>
			
				<line style="fill:none;stroke:#231F20;stroke-width:0.75;stroke-linecap:round;stroke-miterlimit:10;" x1="279.293" y1="218.027" x2="277.282" y2="236.127"/>
			
				<line style="fill:none;stroke:#231F20;stroke-width:0.75;stroke-linecap:round;stroke-miterlimit:10;" x1="239.438" y1="231.191" x2="251.87" y2="221.135"/>
			<path style="fill:#F9AE87;" d="M270.746,254.043l5.347-5.896l2.331-13.711l-1.782-1.097l0.548-0.96c0,0-0.411-2.194,1.097-2.194
				c1.508,0,2.331,1.645,1.371,3.565c3.702,9.598,5.622,21.39-2.194,26.052L270.746,254.043z"/>
			<path style="fill:#F9AE87;" d="M241.129,254.865l-3.565-3.428l2.194-17.825c0,0,1.371-0.274,1.783-0.823
				c0,0,0.137-4.113-2.468-3.154c-2.605,0.96-0.823,2.879-0.823,2.879s-6.174,8.618-8.638,13.3
				c-2.742,5.21,0.548,13.848,7.13,17.413L241.129,254.865z"/>
			<path style="fill:#E8505B;" d="M254.155,246.364c0,0-4.479,2.56-4.022,3.565c0.457,1.006,2.377,0.914,5.942-1.828
				c3.565-2.742,4.41-3.102,4.41-3.102L254.155,246.364z"/>
			<path style="fill:#F9AE87;" d="M254.429,246.278c0.073,1.899,1.299,3.954,3.137,4.125c2.765,0.257,3.584-3.33,2.919-5.404
				c-0.795-2.48-3.884-3.094-5.472-0.917C254.578,244.679,254.397,245.464,254.429,246.278z"/>
			<path style="fill:#F9AE87;" d="M256.76,248.695l-3.154,10.832c0,0,2.468,1.92,4.799,1.508c2.331-0.411,3.154-1.371,3.154-1.371
				l-3.016-11.243L256.76,248.695z"/>
			<path style="fill:#435282;" d="M240.444,253.494l13.848,4.251c0,0,0.274,1.645,3.428,1.782c2.481,0.108,3.565-1.097,3.565-1.097
				l10.695-6.307c0,0,6.856,6.307,7.13,7.13c-3.291,5.896-9.461,10.009-9.461,10.009l3.428,14.534c0,0-7.13,3.976-16.042,5.347
				c-8.912,1.371-15.905-4.388-15.905-4.388l2.742-14.26l-8.638-6.719C235.234,263.778,236.605,257.333,240.444,253.494z"/>
			<path style="fill:#E8505B;" d="M254.155,246.364l6.581-1.92c0,0-1.078-2.932-4.205-2.285
				C253.881,242.708,253.515,245.181,254.155,246.364z"/>
			<polygon style="fill:#E8505B;" points="269.786,284.573 284.595,283.659 285.692,297.736 269.603,299.199 			"/>
			<path style="fill:#E8505B;" d="M226.641,286.402l18.099,0.366l-2.194,22.852c0,0-13.529,1.645-18.282-2.742L226.641,286.402z"/>
			<polygon style="fill:#E8505B;" points="242.729,281.648 242.364,295.177 256.623,295.36 256.075,281.466 			"/>
			<polygon style="fill:#E8505B;" points="257.72,281.648 256.806,294.811 271.066,294.994 271.066,281.466 			"/>
			<path style="fill:#D8D8D8;" d="M281.123,269.527c0.452,2.893-3.589,5.927-9.026,6.776c-5.437,0.849-10.211-0.808-10.662-3.701
				c-0.452-2.893,3.589-5.927,9.026-6.776C275.897,264.977,280.671,266.634,281.123,269.527z"/>
			<path style="fill:#D8D8D8;" d="M256.433,274.327c-0.964,2.765-5.958,3.536-11.154,1.724c-5.196-1.813-8.626-5.523-7.661-8.288
				c0.964-2.765,5.958-3.536,11.154-1.724C253.967,267.852,257.397,271.562,256.433,274.327z"/>
			<path style="fill:#D8D8D8;" d="M240.861,274.896c-0.541,3.239-5.913,5.041-12,4.025c-6.087-1.016-10.582-4.465-10.042-7.704
				c0.541-3.239,5.913-5.041,12-4.025C236.906,268.208,241.402,271.657,240.861,274.896z"/>
			<polygon style="fill:#231F20;" points="291.672,323.04 285.306,315.363 287.031,270.352 286.057,270.314 284.306,316.005 
				278.68,322.482 279.416,323.121 284.247,317.559 284.046,322.783 285.02,322.821 285.25,316.821 290.922,323.662 			"/>
			<polygon style="fill:#231F20;" points="234.877,322.472 228.538,314.828 230.297,273.056 229.324,273.018 227.538,315.406 
				221.885,321.914 222.621,322.553 227.473,316.967 227.251,322.215 228.225,322.253 228.477,316.28 234.127,323.094 			"/>
			<path style="fill:#D8D8D8;" d="M276.306,276l18.465-1.097c-2.011-1.828-7.877-1.665-9.141-1.463
				C281.059,274.172,276.306,276,276.306,276z"/>
			<path style="fill:#231F20;" d="M281.436,322.675l-5.994-7.264l1.921-28.399l2.707,5.831c0.082,0.177,0.258,0.282,0.441,0.282
				c0.069,0,0.139-0.014,0.205-0.046c0.243-0.113,0.349-0.402,0.236-0.647l-3.454-7.439l0.025-0.366
				c0.018-0.262-0.176-0.486-0.434-0.514l-5.644-12.157c-0.112-0.243-0.401-0.351-0.647-0.236c-0.243,0.113-0.349,0.402-0.236,0.647
				l5.947,12.809l-2.053,30.351l-7.798,6.911c-0.201,0.178-0.22,0.486-0.041,0.688c0.178,0.201,0.485,0.22,0.688,0.041l7.058-6.255
				l-0.371,5.492c-0.018,0.269,0.184,0.501,0.453,0.519c0.011,0.001,0.023,0.001,0.034,0.001c0.254,0,0.468-0.197,0.485-0.454
				l0.382-5.646l5.338,6.471c0.096,0.117,0.236,0.177,0.376,0.177c0.109,0,0.219-0.036,0.31-0.111
				C281.577,323.189,281.607,322.882,281.436,322.675z"/>
			<path style="fill:#231F20;" d="M249.494,322.612l-7.605-7.124l-1.214-30.396l6.298-12.64c0.12-0.241,0.022-0.533-0.218-0.653
				c-0.242-0.122-0.534-0.022-0.653,0.218l-5.978,11.996c-0.259,0.021-0.458,0.239-0.447,0.502l0.015,0.367l-3.658,7.34
				c-0.12,0.241-0.022,0.533,0.218,0.653c0.066,0.033,0.136,0.049,0.204,0.051c0.184,0.005,0.362-0.095,0.449-0.269l2.867-5.755
				l1.136,28.442l-6.192,7.096c-0.177,0.203-0.156,0.51,0.047,0.687c0.089,0.078,0.198,0.117,0.307,0.12
				c0.14,0.004,0.281-0.052,0.38-0.166l5.515-6.321l0.226,5.655c0.01,0.257,0.218,0.46,0.472,0.467c0.011,0,0.023,0.001,0.034,0
				c0.269-0.011,0.478-0.237,0.467-0.507l-0.22-5.5l6.883,6.448c0.198,0.184,0.505,0.174,0.688-0.022
				C249.7,323.104,249.689,322.795,249.494,322.612z"/>
			<g>
				
					<ellipse transform="matrix(0.9255 -0.3787 0.3787 0.9255 -96.103 119.4482)" cx="255.618" cy="304.044" rx="17.198" ry="17.199"/>
				
					<ellipse transform="matrix(0.9254 -0.379 0.379 0.9254 -96.1694 119.5749)" style="fill:#D8D8D8;" cx="255.618" cy="304.044" rx="15.749" ry="15.749"/>
			</g>
		</g>
		<g>
			<polygon style="fill:#B7715C;" points="202.509,257.242 213.387,268.577 217.866,263.366 211.102,251.849 			"/>
			<path style="fill:#C98165;" d="M195.196,223.604c0,0,2.605,2.057,2.468,8.09c-1.097,1.371-6.17,0.96-6.17,0.96
				s-1.097-1.097-1.92-2.879C188.752,227.991,189.575,223.329,195.196,223.604z"/>
			<path style="fill:#FFFFFF;" d="M202.692,258.705l10.146-6.673c0,0-7.678-8.41-10.329-9.598
				c-2.651-1.188-6.307-1.828-10.604-1.645c-3.635,0.155-10.264,2.269-13.22,3.637c3.964,1.112,6.162,5.194,6.09,7.423
				c-0.091,2.834-2.377,7.13-4.205,9.415c-0.366-0.091-2.102-0.64-2.102-0.64s-1.188,3.016-4.205,11.152
				c5.21,2.377,18.373,1.462,24.955-2.011c-0.64-1.92-1.28-8.684-1.28-8.684l0.914-6.947L202.692,258.705z"/>
			<path style="fill:#182023;" d="M190.9,223.238c-2.559,1.371-3.199,3.839-2.651,5.576c0.548,1.737,3.245,3.839,3.245,3.839
				s0.137-0.576,0.178-1.467c-0.441-0.038-1.192-0.25-1.32-1.276c-0.12-0.96,0.581-1.325,1.081-1.465
				c-0.069-0.299-0.153-0.604-0.259-0.912l1.554-0.823c0,0,2.651-1.554,3.839-2.559C195.196,222.689,193.46,221.867,190.9,223.238z"
				/>
			<path style="fill:#C98165;" d="M191.672,231.186l-3.514,11.065c0,0,2.011,2.651,4.296,2.559c2.285-0.091,3.474-1.92,3.474-1.92
				l-1.188-11.335L191.672,231.186z"/>
			<g>
				<path style="fill:#435282;" d="M208.725,324.154c0,0,4.57-15.448,5.667-21.207c1.097-5.759,0-11.975-3.93-18.282
					c-3.931-6.307-12.706-16.179-12.706-16.179l-8.227,2.011l2.834,19.653c0,0,9.872,9.049,10.421,9.507
					c0.475,7.283,1.019,19.908,2.165,25.477c1.059-0.23,2.741-0.607,3.869-0.915L208.725,324.154z"/>
				<path style="fill:#182023;" d="M213.295,327.353l-4.478-3.134c-1.128,0.308-2.81,0.685-3.869,0.915
					c0.177,0.861,0.369,1.559,0.577,2.037C213.295,327.353,213.295,327.353,213.295,327.353z"/>
			</g>
			<path style="fill:#E8505B;" d="M191.54,267.023l28.245-15.357l-0.183-2.285c0,0,7.77-1.92,8.318-2.011
				c0.548-0.091,0.548,3.565,0.548,3.565l-35.375,19.561L191.54,267.023z"/>
			<path style="fill:#435282;" d="M175.452,271.136c0,0-1.828,1.828,0.274,11.061c2.102,9.232,3.565,13.437,4.479,16.728
				c0,0-7.678,23.584-6.033,29.891c6.124,0.183,7.77-0.274,7.77-0.274l-3.291-2.194c0,0,11.883-18.282,13.986-22.121
				c2.102-3.839,1.28-16.637,1.097-20.384c-0.183-3.748-1.462-12.34-1.462-12.34L175.452,271.136z"/>
			<path style="fill:#182023;" d="M173.951,326.904c0.018,0.737,0.085,1.388,0.221,1.911c6.124,0.183,7.77-0.274,7.77-0.274
				l-3.214-2.143L173.951,326.904z"/>
			<path style="fill:#E8505B;" d="M174.994,266.262c1.854-1.631,4.496-2.401,7.221-1.974c1.086,0.171,2.161,0.501,3.26,0.457
				c5.043-0.199,6.485-6.003,10.819-7.504c2.377-0.823,4.022,0.914,2.925,2.011c-1.097,1.097-3.291,1.097-4.022,3.291
				c-0.731,2.194-1.463,4.57,0.366,7.313s5.485,2.285,6.033,2.925c0.548,0.64,0.64,2.194-2.742,2.285
				c-3.382,0.091-5.028,0.457-6.399,2.56c-1.371,2.102-5.119,6.764-12.066,5.484c-0.715-0.132-1.405-0.374-2.052-0.702
				c-3.712-1.88-6.012-6.411-5.928-10.491C172.456,269.568,173.453,267.618,174.994,266.262z"/>
			<path style="fill:#C98165;" d="M171.887,253.677c0,0-1.554,3.382-2.651,6.125c-1.097,2.742-3.108,8.958,2.377,12.706
				c5.484,3.748,12.34,4.388,12.34,4.388s2.651,1.462,4.113,1.28c1.463-0.183,1.828-3.108,1.828-3.108h-1.005
				c0,0,0.183-1.005-0.548-1.097s-2.834,0.366-2.834,0.366s-6.947-6.947-7.404-7.587c-0.457-0.64,2.011-6.764,2.011-6.764
				L171.887,253.677z"/>
			<path style="fill:#FFFFFF;" d="M184.776,251.849c0.072-2.229-2.127-6.311-6.09-7.423c-0.538,0.249-0.969,0.476-1.222,0.659
				c-1.645,1.188-7.953,7.221-7.953,7.221c2.559,4.753,8.958,8.318,8.958,8.318s1.737,0.548,2.102,0.64
				C182.399,258.979,184.684,254.683,184.776,251.849z"/>
			<path style="fill:#182023;" d="M196.202,240.514c0,0,1.371,15.631,1.828,17.368c0.457,1.737,2.102,1.097,2.011-1.463
				c-0.091-2.559-1.371-15.448-1.371-15.448S196.842,240.514,196.202,240.514z"/>
			<path style="fill:#C98165;" d="M212.198,263.549l2.834-4.753c0,0-0.731-1.006,0.183-2.011c-0.274-0.823-1.188-1.737-1.188-1.737
				c0.64-0.366,1.28-1.463,2.651-1.371c1.92,1.92,1.92,1.92,1.92,1.92c0.457,4.388,1.371,10.695-2.194,13.894
				c-1.097,0.914-3.199-0.731-4.936-3.017C211.467,266.474,211.01,265.469,212.198,263.549z"/>
		</g>
	</g>
	<g>
		<defs>
			<rect id="SVGID_00000052105104204743401670000006821440057352882338_" y="292.549" width="500" height="207.451"/>
		</defs>
		<clipPath id="SVGID_00000124136194874984793860000018054210756535606180_">
			<use xlink:href="#SVGID_00000052105104204743401670000006821440057352882338_"  style="overflow:visible;"/>
		</clipPath>
		<g style="clip-path:url(#SVGID_00000124136194874984793860000018054210756535606180_);">
			<g>
				<polygon style="fill:#F9AE87;" points="259.861,431.19 276.848,460.739 296.168,456.155 279.141,420.462 				"/>
				<path style="fill:#F9BB94;" d="M238.818,356.196c-0.125,0.36-0.273,0.732-0.568,0.973c-0.315,0.257-0.741,0.318-1.145,0.357
					c-3.056,0.297-6.132-0.119-9.174-0.535c-0.43-0.059-0.878-0.124-1.234-0.372c-0.313-0.218-0.521-0.553-0.719-0.879
					c-1.322-2.181-2.591-4.427-3.306-6.875c-0.715-2.448-0.84-5.142,0.107-7.509c2.022-5.054,9.113-6.367,12.733-2.374
					C239.557,343.443,240.764,350.579,238.818,356.196z"/>
				<path style="fill:#F9BB94;" d="M231.944,354.149l4.311,24.487c0,0-10.799-1.289-16.14-4.316
					c4.386-15.367,6.192-23.016,6.192-23.016L231.944,354.149z"/>
				<path style="fill:#F9BB94;" d="M257.579,353.883c2.451-13.817,5.145-27.549,7.911-41.298c0,0-2.449-2.574-2.492-3.95
					c-0.043-1.376,1.489-2.871,1.489-2.871s-1.473-3.83,1.54-4.845c3.013-1.016,10.881,1.741,6.483,10.742
					c7.164,27.045,9.078,50.349,0.999,58.84c-2.838,2.983-6.457,3.771-10.354,4.938c-1.633,0.489-5.987,3.217-7.402,1.337
					c-0.424-0.563-0.563-1.261-0.652-1.93c-0.475-3.572,0.104-7.09,0.683-10.549C256.364,360.82,256.964,357.348,257.579,353.883z"
					/>
				<g>
					<path style="fill:#435282;" d="M191.726,385.636c3.499-2.229,7.232-4.124,11.583-5.741c8.194-3.045,16.718-5.142,25.352-6.481
						c4.613-0.716,10.229-0.381,14.341-2.784c3.567-2.085,6.448-5.98,8.319-9.564c0.357-0.683,3.933-8.749,4.712-8.466
						c6.772,2.546,13.526,5.186,20.447,7.336c4.954,1.539,3.445,2.58,1.852,7.173c-1.126,3.245-2.214,6.505-3.377,9.736
						c-1.808,5.213-3.643,10.483-6.628,15.124c-3.22,5.008-4.877,6.978-10.328,9.104c1.311,5.421,3.72,13.333,5.16,18.79
						c3.913,14.818,3.776,28.781,5.8,43.963c-57.854-9.915-70.692-12.06-70.692-12.06s-2.268-34.346-2.326-35.231
						c-0.038-0.581-6.533,5.323-6.888,5.744c-2.753,3.267-5.181,6.807-7.235,10.554c-6.591-5.283-12.779-11.069-18.494-17.29
						c-2.032-2.212,15.437-19.728,17.44-21.481C184.465,390.821,187.96,388.035,191.726,385.636z"/>
					<path style="fill:#435282;" d="M214.446,378.775l0.002-5.975c0,0,17.484-4.798,21.602-4.11l0.442,6.299L214.446,378.775z"/>
				</g>
				<path style="fill:#182023;" d="M231.905,343.427l0.491,8.35c-3.193-3.684-4.421-1.228-4.175,0.737
					c0.246,1.965,3.438,3.438,5.649,3.193c-0.737,1.719-0.737,1.719-0.737,1.719s-4.242,0.312-7.156-1.686
					c-2.914-1.998-3.159-6.664-3.405-8.383C222.327,345.638,231.905,343.427,231.905,343.427z"/>
				<path style="fill:#FFFFFF;" d="M222.671,348.865l28.145-13.788c-2.947-1.474-10.715,0.687-15.304,3.905
					C230.431,328.937,216.384,337.112,222.671,348.865z"/>
			</g>
			<g>
				<path style="fill:#F9BB94;" d="M294.855,359.758c0,0,4.201-23.6,10.999-41.805l-2.84-4.977l2.447,1.474
					c-0.604-3.518-0.241-5.664-0.241-5.664l2.047,5.682l0.265-6.824l1.533,6.95l0.952-6.016l0.408,7.848l2.999-0.333l-2.591,2.1
					c0,0-0.054,34.207,0.286,39.987l0.068,2.068L294.855,359.758z"/>
				<path style="fill:#F9BB94;" d="M367.359,365.796c0,0,0.435-23.971-2.721-43.158l3.747-4.328l-2.685,0.968
					c1.272-3.333,1.33-5.509,1.33-5.509l-3.105,5.174l1.058-6.745l-2.845,6.517l0.227-6.087l-1.915,7.619l-2.877-0.913l2.136,2.566
					c0,0-6.549,33.566-7.998,39.17l-0.466,2.016L367.359,365.796z"/>
				<path style="fill:#182023;" d="M305.42,452.623c-0.112,1.601,1.929,51.227,1.929,51.227l28.203,1.972l4.422-29.461
					l15.416,32.859l24.286,1.698l-12.449-58.399L305.42,452.623z"/>
				<g>
					<path style="fill:#F9AE87;" d="M321.868,354.52c0,0-2.235-0.557-2.008,1.714c0.297,2.969,2.77,2.342,2.77,2.342L321.868,354.52
						z"/>
					<path style="fill:#F9AE87;" d="M335.939,353.175c0.141,4.673-2.938,8.572-6.877,8.708c-3.939,0.137-7.247-3.541-7.389-8.214
						c-0.141-4.673,2.938-8.572,6.877-8.708C332.49,344.825,335.797,348.502,335.939,353.175z"/>
					<polygon style="fill:#F9AE87;" points="326.376,358.519 319.367,380.571 337.605,381.268 331.656,358.503 					"/>
					<path style="fill:#F9AE87;" d="M335.942,353.132c0,0,1.874-0.768,2.334,1.94c0.46,2.709-1.607,2.873-1.607,2.873
						L335.942,353.132z"/>
					<path style="fill:#435282;" d="M336.607,349.87c0.049,0.749,0.076,1.49,0.151,2.177c0.171,1.58,2.35,20.268,3.017,20.19
						c-7.47,0.88-14.973,1.455-22.486,1.726c1.998-6.98,3.42-14.279,4.076-21.501c0.198-2.177,0.266-4.504,1.95-6.113
						c1.62-1.548,3.897-0.459,5.236-1.387c1.832-1.271,4.785-1.584,6.461,0.08C336.26,346.28,336.492,348.096,336.607,349.87z"/>
				</g>
				<path style="fill:#FFFFFF;" d="M312.6,379.534c0,0,18.889-2.662,34.615,1.913l10.501-51.891c0,0,5.38-3.932,9.289,2.259
					c1.063,1.683,1.203,24.284,1.224,33.29c0.302,16.964-3.234,40.176-3.234,40.176s6.679,51.168,6.679,51.17
					c-0.06-0.457-7.61,1.882-15.92,2.508c-16.061,1.21-25.797,3.024-39.955,2.839c-1.627-0.021-15.339-1.538-15.333-0.268
					c-0.001-0.209-0.251-47.744-0.251-47.744s-7.78-16.401-8.928-30.383c-1.148-13.982,9.994-57.389,9.994-57.389
					s2.546-2.638,11.444-0.407L312.6,379.534z"/>
			</g>
			<g>
				<path style="fill:#F9AE87;" d="M103.205,394.705c-0.842-1.351-1.67-2.688-2.494-3.988c-13.161,5.73-15.605,17.497-18.495,29.964
					c-1.984,8.559-3.143,17.388-3.897,26.139c0,0-2.142,0.184-2.531,1.685s1.01,3.712,1.01,3.712l-1.655,2.344
					c0,0,4.755,2.095,7.607,0.123c2.852-1.972,1.371-8.146,1.371-8.146c7.007-10.875,16.6-29.829,16.6-29.829
					c4.193-1.991,8.303-4.04,12.662-5.273C111.506,405.559,106.471,399.947,103.205,394.705z"/>
				<path style="fill:#F9AE87;" d="M142.985,345.575c-8.338-4.335-8.567-20.168,3.332-16.247
					C156.83,332.792,153.868,351.234,142.985,345.575z"/>
				<path style="fill:#F9AE87;" d="M142.468,340.474l-3.34,26.919c0,0,9.275,2.958,15.638-1.862
					c-5.185-16.129-7.239-22.945-7.239-22.945L142.468,340.474z"/>
				<path style="fill:#435282;" d="M196.216,435.474l-61.797,15.715l1.074,35.086l2.017,26.836l44.486,2.815l-3.541-29.978
					l-2.401-16.886l17.205,18.99l2.816,24.496l30.408,1.689l4.505-27.874C227.243,460.873,196.216,435.474,196.216,435.474z"/>
				<path style="fill:#F9AE87;" d="M190.104,365.384l7.338-0.501l2.232-34.291l-1.938-3.459l2.211-1.399
					c0,0-0.065-4.268,1.774-4.469c1.839-0.201,5.127,0.897,5.53,4.575c0.402,3.677-1.235,5.717-1.235,5.717s8.32,19.96,8.395,34.888
					c0.075,14.928-18.94,22.692-18.94,22.692L190.104,365.384z"/>
				<path style="fill:#D8D8D8;" d="M188.722,394.778c3.728-1.111,7.482-2.376,10.879-4.252c1.204-0.665-5.249-25.366-6.046-27.87
					c-8.065-0.469-16.141-0.746-24.219-0.833c-9.184-0.099-18.427,0.055-27.452,1.761c-12.401,2.343-22.035,9.361-32.053,16.644
					c-5.158,3.75-10.565,7.121-15.593,11.125c-1.076,0.857,11.267,23.556,12.35,25.659c6.259-1.918,12.457-4.032,18.591-6.315
					c-0.675,0.251,7.594,39.151,8.515,43.069c0.064,0.272,0.144,0.569,0.374,0.727c0.237,0.163,0.552,0.125,0.836,0.08
					c7.531-1.182,14.816-2.374,22.079-4.422c7.877-2.22,16.736-2.041,24.351-5.328c2.625-1.133,5.659-1.036,8.392-2.007
					c3.507-1.246,6.958-2.659,10.351-4.187c0.345-0.156-5.884-21.786-6.66-23.684c-2.633-6.444-4.471-12.89-6.387-19.67
					C187.592,395.111,188.157,394.946,188.722,394.778z"/>
				<path style="fill:#E8505B;" d="M140.291,323.372c0.441,1.024,0.882,2.048,1.323,3.072c-2.167-0.789-4.426-1.325-6.716-1.592
					c0.914,0.972,1.828,1.945,2.743,2.917c-2.003,0.076-3.991,0.523-5.833,1.313c1.225,0.174,2.386,0.773,3.237,1.671
					c-2.425,0.41-4.842,0.871-7.248,1.383c1.644,1.01,3.22,2.13,4.716,3.349c-0.387-0.347-2.628,0.234-3.027,0.41
					c0.454,2.356,3.633,5.056,5.472,6.491c1.58,1.231,3.441,2.232,5.42,2.624c0.863,0.171,4.801-0.63,5.256-0.024
					c-0.959-1.28-8.419-10.848-2.059-9.632c1.397,0.267,2.231,1.373,3.391,1.981c-0.182-1.166-0.632-2.338-0.981-3.482
					c-0.046-0.15-0.092-0.31-0.053-0.462c0.043-0.167,0.18-0.292,0.31-0.405c0.811-0.708,1.622-1.416,2.433-2.125
					c0.167-0.146,0.347-0.316,0.358-0.538c0.008-0.167-0.084-0.322-0.178-0.46C146.814,326.861,143.61,324.76,140.291,323.372z"/>
			</g>
			<g>
				<polygon style="fill:#F9AE87;" points="63.984,350.963 55.893,374.516 75.911,375.658 69.783,351.059 				"/>
				<path style="fill:#8BB1B2;" d="M39.847,449.415c-1.339,17.632-2.678,35.263-4.017,52.895c7.808,0.041,15.617,0.082,23.425,0.124
					c0.863,0.005,1.777-0.005,2.512-0.483c1.013-0.659,6.23-0.677,6.526-1.893c1.847-7.611,2.79-9.512,4.637-17.123
					c4.625,7.421,5.312,7.815,9.937,15.236c0.532,0.854,1.094,1.738,1.934,2.246c0.945,0.572,2.094,0.579,3.183,0.561
					c9.013-0.153,18.016-1.015,26.909-2.577c-1.942-15.734-4.008-31.45-6.197-47.147c-0.066-0.476-1.446-0.48-0.994-0.416
					L39.847,449.415z"/>
				<path style="fill:#F9AE87;" d="M104.633,358.057c0,0,0.847-24.12-2.078-43.497l3.925-4.28l-2.778,0.92
					c1.363-3.329,1.46-5.519,1.46-5.519l-3.279,5.145l1.2-6.768l-3.035,6.503l0.335-6.122l-2.096,7.631l-2.944-0.977l2.154,2.626
					c0,0-7.296,33.655-8.88,39.266l-0.513,2.02L104.633,358.057z"/>
				<path style="fill:#435282;" d="M50.936,374.335c1.495-0.423,3.014-0.76,4.532-1.021c8.347-1.391,17.142-1.469,25.564-1.776
					c0.24-0.009,0.497-0.024,0.687-0.171c0.171-0.132,0.252-0.346,0.326-0.549c0.624-1.718,5.657-19.176,6.042-19.182
					c0.034-0.001,14.022-0.206,16.792,8.324c0.026,16.18-3.786,38.243-3.786,38.243c2.247,17.82,7.412,42.605,10.362,60.295
					c-26.438,6.881-54.6,22.862-77.766,8.383c-2.854-1.784-0.097-57.575,0.357-62.07c0.803-7.946-2.521-15.887,2.655-21.97
					C40.343,378.561,45.481,375.878,50.936,374.335z"/>
				<path style="fill:#F9AE87;" d="M76.426,353.022c-0.049,0.325-0.118,0.673-0.359,0.897c-0.328,0.305-0.837,0.266-1.282,0.207
					c-3.428-0.453-6.855-0.907-10.283-1.361c-0.42-0.056-0.87-0.125-1.175-0.419c-0.216-0.208-0.327-0.5-0.431-0.782
					c-0.657-1.774-1.314-3.549-1.972-5.323c-1.193-3.22-2.318-7.184,0.604-9.822c2.027-1.83,5.125-2.612,7.635-1.43
					C75.088,337.78,77.3,347.198,76.426,353.022z"/>
				<path style="fill:#E8505B;" d="M74.945,336.664c-0.005,0.03-0.971,5.931-3.856,9.228c-1.102-3.581-1.102-3.581-1.102-3.581
					s-3.306,1.24-2.066,3.581c1.24,2.341,2.341,2.066,2.341,2.066l-3.443,18.181l-18.181-1.653c0,0,3.994-5.234,6.474-11.57
					c0.937-2.395,1.441-5.379,1.51-7.949c0.06-2.252-0.376-4.346,0.642-6.527c0.975-2.087,2.89-3.642,5.19-2.782
					c1.405-2.25,4.129-3.346,6.719-3.067C70.623,332.748,75.291,334.543,74.945,336.664z"/>
				<path style="fill:#435282;" d="M48.672,374.489c0,0-18.193,5.708-30.678,24.614C5.508,418.01,5.508,418.01,5.508,418.01
					s6.778,8.918,12.486,12.485l20.333-13.556L48.672,374.489z"/>
			</g>
			<g>
				<polygon style="fill:#F9BB94;" points="446.522,393.38 445.894,365.891 438.541,365.619 425.315,390.731 				"/>
				<polygon style="fill:#182023;" points="390.609,464.408 378.807,508.043 460.459,506.917 459.201,477.327 				"/>
				<path style="fill:#F9BB94;" d="M387.918,357.716l-1.18-22.872l2.593-3.08l-2.362-2.414c1.142-3.895,1.142-3.895,1.142-3.895
					s-4.313-0.954-6.354,3.043c-2.041,3.998-0.963,6.042-0.963,6.042l-5.508,25.025L387.918,357.716z"/>
				<path style="fill:#E8505B;" d="M463.345,392.274c-4.932-2.931-10.179-5.339-15.597-7.206
					c-8.383-2.888-17.173-4.508-26.013-5.071c-10.447-0.665-20.893,1.868-31.294,0.657c-0.778-0.091-0.269-8.645-0.312-9.458
					c-0.294-5.432-1.163-21.526-1.107-26.965c0.012-1.221-12.588-0.301-12.732,0.818c-1.346,10.444-2.414,16.705-3.416,25.482
					c-1.905,16.682-2.407,22.43-1.047,32.287c1.471,10.658,18.684,13.467,28.348,14.978l-13.024,48.547
					c0,0,18.929,10.825,45.928,12.167c22.679,1.127,30.158-1.781,30.158-1.781l-0.112-47.425c0,0,10.076,14.677,10.968,18.029
					c2.888,10.858,5.975,26.926,5.975,26.926l16.432,0.362c0,0-1.055-23.259-5.214-46.191c-2.054-11.324-7.028-19.302-15.475-26.97
					C471.981,397.982,467.791,394.916,463.345,392.274z"/>
				<path style="fill:#F9BB94;" d="M445.084,367.754l-11.009-0.813c0,0-0.869-5.37-0.087-10.914
					c0.781-5.544,4.185-12.122,11.308-10.749C452.419,346.652,458.145,359.247,445.084,367.754z"/>
				<path style="fill:#435282;" d="M439.484,354.707c0,0,3.604-0.554,2.297,3.595c-1.307,4.149-4.094,2.524-4.094,2.524
					c0.256,4.154,3.411,7.462,7.833,6.504c1.957-0.424,3.653-1.655,5.055-3.085c5.106-5.21,4.041-9.85,3.371-16.294
					c-0.09-0.861,2.606-0.099,2.606-0.099l-5.175-2.769l3.468-0.191c0,0-5.02-2.959-7.208-2.205
					c-2.188,0.754,3.114-1.898,3.114-1.898s-6.137-1.97-9.26,1.499c-3.123,3.468-4.575,6.237-4.575,6.237l1.108,3.895l-0.871,4.975
					L439.484,354.707z"/>
			</g>
			<g>
				<polygon style="fill:#F9AE87;" points="302.786,471.722 264.775,503.257 251.261,490.868 289.834,453.702 				"/>
				<path style="fill:#F9AE87;" d="M339.253,396.155c0.192,0.436,0.415,0.885,0.808,1.155c0.419,0.288,0.957,0.321,1.465,0.328
					c3.841,0.059,7.634-0.775,11.385-1.605c0.53-0.117,1.081-0.245,1.501-0.59c0.368-0.303,0.594-0.742,0.807-1.169
					c1.426-2.855,2.779-5.785,3.42-8.911c0.641-3.126,0.522-6.497-0.901-9.353c-3.037-6.095-12.014-7.008-16.121-1.659
					C337.028,380.329,336.252,389.35,339.253,396.155z"/>
				<path style="fill:#F9AE87;" d="M346.709,392.603l-11.262,26.185c0,0,12.389,1.408,19.146-0.563
					c-0.845-18.301-0.845-27.311-0.845-27.311L346.709,392.603z"/>
				<path style="fill:#F9AE87;" d="M389.225,403.584l5.35-2.534l-18.02-39.982c0,0-3.379-0.563-4.223-1.689
					c-0.845-1.126-0.563-3.379-0.563-3.379s-3.379-2.253-1.689-5.068c1.689-2.816,9.291-5.631,11.262,4.786
					c21.399,18.02,36.603,36.321,35.477,48.71c-1.126,12.389-17.457,21.117-17.457,21.117L389.225,403.584z"/>
				<g>
					<path style="fill:#435282;" d="M310.651,430.392c3.877-2.985,7.98-5.686,12.414-8.232
						c21.039-12.083,44.65-17.959,68.499-21.164c3.572,7.523,9.733,15.215,14.019,22.3c0.232,0.383,0.472,0.809,0.397,1.25
						c-0.07,0.41-0.355,0.776-0.706,0.999c-6.194,3.942-19.806,11.025-19.146,12.389c0,0,12.67,19.991,27.03,66.73
						c-67.293-0.282-82.215-0.282-82.215-0.282l-9.292-39.418c0,0-19.709,10.699-21.399,12.107c0,0-13.233-23.369-13.233-23.369
						c4.409-4.865,8.909-9.654,13.512-14.336C303.767,436.073,307.115,433.115,310.651,430.392z"/>
					<path style="fill:#435282;" d="M335.447,418.789l-1.126-6.758c0,0,18.865-8.728,23.651-8.728l1.689,7.039L335.447,418.789z"/>
				</g>
				<path style="fill:#E8505B;" d="M340.196,372.571c-2.413,2.958-1.095,8.003,2.1,10.093c0.472,0.309,1.011,0.569,1.574,0.534
					c0.646-0.04,1.207-0.46,1.838-0.604c1.115-0.254,2.31,0.446,2.825,1.467c0.515,1.021,0.425,2.271-0.024,3.323
					c-0.352,0.822-0.914,1.553-1.618,2.105c-0.438,0.343-0.943,0.632-1.236,1.104c-0.228,0.368-0.302,0.808-0.358,1.237
					c-0.302,2.303-0.22,4.656,0.24,6.932c2.897-0.082,5.783-0.54,8.563-1.358c0.765-0.225,1.552-0.495,2.118-1.057
					c0.542-0.536,0.82-1.277,1.072-1.996c0.654-1.866,1.238-3.757,1.75-5.668c1.113-4.153,1.874-8.612,0.557-12.706
					c-1.316-4.093-5.302-7.606-9.565-7.045C350.032,368.932,344.288,367.555,340.196,372.571z"/>
			</g>
			<g>
				<polygon style="fill:#F9AE87;" points="88.752,474.918 108.228,508.794 130.378,503.538 110.856,462.618 				"/>
				<path style="fill:#C98165;" d="M64.628,388.941c-0.143,0.412-0.313,0.839-0.651,1.115c-0.361,0.294-0.85,0.364-1.313,0.409
					c-3.504,0.341-7.03-0.137-10.518-0.613c-0.493-0.067-1.006-0.142-1.414-0.426c-0.359-0.25-0.598-0.634-0.825-1.008
					c-1.516-2.5-2.971-5.075-3.791-7.882c-0.82-2.807-0.963-5.894,0.123-8.609c2.318-5.794,10.447-7.299,14.598-2.722
					C65.476,374.321,66.86,382.501,64.628,388.941z"/>
				<path style="fill:#C98165;" d="M56.748,386.594l4.943,28.073c0,0-12.381-1.477-18.504-4.948
					c5.028-17.617,7.099-26.386,7.099-26.386L56.748,386.594z"/>
				<path style="fill:#C98165;" d="M20.012,380.803c-0.161-16.086-0.613-32.123-1.144-48.193c0,0,3.256-2.448,3.564-3.995
					c0.309-1.548-1.141-3.528-1.141-3.528s2.39-4.052-0.826-5.77c-3.215-1.718-12.633-0.088-9.36,10.922
					c-13.21,29.229-19.778,55.218-12.246,66.346c2.646,3.909,6.589,5.484,10.776,7.54c1.754,0.861,6.162,4.769,8.117,2.911
					c0.586-0.557,0.875-1.32,1.101-2.059c1.212-3.949,1.222-8.037,1.221-12.057C20.075,388.876,20.053,384.838,20.012,380.803z"/>
				<g>
					<path style="fill:#E8505B;" d="M88.478,429.151c-3.535-3.181-7.399-6.03-12.013-8.68c-8.691-4.991-17.933-8.973-27.443-12.118
						c-5.081-1.681-11.495-2.363-15.69-5.857c-3.64-3.032-6.162-7.98-7.601-12.387c-0.274-0.84-2.794-10.636-3.729-10.463
						c-8.138,1.599-16.275,3.308-24.507,4.432c-5.893,0.804-4.383,2.266-3.449,7.761c0.66,3.882,1.275,7.774,1.979,11.647
						c1.06,6.237,2.139,12.542,4.637,18.354c2.695,6.272,4.197,8.811,9.959,12.246c-2.506,5.882-6.725,14.374-9.385,20.272
						c-7.224,16.017-9.707,31.831-14.864,48.616c67.293-0.282,82.215-0.282,82.215-0.282s9.054-38.409,9.287-39.399
						c0.153-0.65,6.381,7.253,6.703,7.796c2.496,4.214,4.573,8.676,6.188,13.301c8.451-4.729,16.542-10.102,24.179-16.057
						c2.716-2.118-13.729-25.225-15.662-27.585C95.708,436.385,92.283,432.575,88.478,429.151z"/>
					<path style="fill:#E8505B;" d="M64.082,417.099l1.126-6.757c0,0-18.864-8.728-23.651-8.728l-1.689,7.039L64.082,417.099z"/>
				</g>
				<path style="fill:#182023;" d="M56.703,374.302l0.563,9.573c-3.66-4.223-5.068-1.408-4.786,0.845
					c0.282,2.252,3.942,3.942,6.476,3.66c-0.845,1.971-0.845,1.971-0.845,1.971s-4.863,0.358-8.203-1.933
					c-3.34-2.291-3.622-7.64-3.903-9.611C45.722,376.836,56.703,374.302,56.703,374.302z"/>
				<path style="fill:#FFFFFF;" d="M46.117,380.537l32.266-15.807c-3.379-1.689-12.285,0.788-17.545,4.477
					C55.013,357.69,38.909,367.062,46.117,380.537z"/>
			</g>
			<g>
				<path style="fill:#C98165;" d="M228.447,385.545c0,0-3.396-0.586-2.82,2.711c0.753,4.308,4.381,3.14,4.381,3.14L228.447,385.545
					z"/>
				<path style="fill:#C98165;" d="M248.091,383.536c0.699,6.814-3.492,12.827-9.361,13.429
					c-5.869,0.602-11.194-4.434-11.893-11.248c-0.699-6.814,3.492-12.827,9.361-13.429
					C242.068,371.685,247.392,376.721,248.091,383.536z"/>
				<polygon style="fill:#C98165;" points="234.367,392.322 226.202,425.264 253.513,424.42 242.251,391.759 				"/>
				<path style="fill:#C98165;" d="M193.259,399.361c0,0,3.379-30.972,10.699-55.186l-4.223-6.194l3.379,1.689
					c-1.126-4.505-0.845-7.32-0.845-7.32l3.238,7.18l-0.281-8.869l2.675,8.869l0.704-7.884l1.267,10.136l3.942-0.704l-3.238,2.956
					c0,0,3.097,44.346,4.083,51.807l0.282,2.675L193.259,399.361z"/>
				<path style="fill:#C98165;" d="M289.871,400.616c0,0-1.645-31.112-7.602-55.697l4.563-5.949l-3.468,1.498
					c1.376-4.435,1.252-7.262,1.252-7.262l-3.634,6.988l0.776-8.84l-3.166,8.706l-0.263-7.911l-1.831,10.05l-3.896-0.923
					l3.068,3.133c0,0-5.568,44.104-6.968,51.498l-0.43,2.655L289.871,400.616z"/>
				<path style="fill:#182023;" d="M248.678,378.652c0.018,1.343-0.04,2.673-0.118,4.023c0.007-0.129-1.36,0.224-1.507,0.449
					c-0.234,0.356-0.088,1.03-0.14,1.434c-0.219,1.694-0.396,3.399-0.732,5.075c-0.374,1.868-0.876,4.083-2.241,5.505
					c-3.52,0.985-11.262,1.126-11.262,1.126s-3.801-1.549-5.772-9.573c-1.971-8.025,0.425-14.869,9.293-14.403
					c2.604-2.045,6.983-2.805,9.66-0.543c1.487,1.257,2.351,3.139,2.663,5.06C248.622,377.417,248.67,378.033,248.678,378.652z"/>
				<path style="fill:#C98165;" d="M247.037,382.89c0,0,3.163-1.368,3.379,1.971c0.281,4.364-3.52,4.083-3.52,4.083L247.037,382.89z
					"/>
				<path style="fill:#E8505B;" d="M218.6,423.387c0,0,24.777-5.162,46.035-0.657l2.534-32.379c0,0,19.005-1.971,23.792,9.291
					c1.971,21.962-0.563,52.37-0.563,52.37l10.981,50.681l-94.323-0.282l-1.689-33.506c0,0-11.826-20.554-14.641-38.574
					c-2.816-18.02,0.282-34.632,0.282-34.632s16.331-5.913,26.748-0.563L218.6,423.387z"/>
			</g>
			<g>
				<polygon style="fill:#C98165;" points="464.604,394.07 475.63,426.168 448.35,427.725 456.701,394.201 				"/>
				<path style="fill:#C98165;" d="M409.719,408.342c0,0-1.154-32.871,2.832-59.278l-5.35-5.833l3.786,1.254
					c-1.858-4.537-1.99-7.521-1.99-7.521l4.469,7.012l-1.636-9.224l4.136,8.862l-0.457-8.344l2.857,10.399l4.012-1.332l-2.936,3.579
					c0,0,9.944,45.866,12.102,53.512l0.699,2.752L409.719,408.342z"/>
				<path style="fill:#D8D8D8;" d="M482.386,425.922c-2.038-0.576-4.108-1.036-6.177-1.392c-11.375-1.896-23.361-2.001-34.839-2.42
					c-0.327-0.012-0.677-0.032-0.936-0.233c-0.232-0.18-0.344-0.472-0.444-0.749c-0.85-2.341-7.709-26.133-8.235-26.141
					c-0.047-0.001-19.109-0.28-22.884,11.345c-0.035,22.05,5.159,52.118,5.159,52.118l-6.488,51.449
					c0.002-0.018,0.591-0.054,0.624-0.057c35.044-3.194,70.507-5.163,105.193-9.298c0.123-10.859-0.363-21.724-1.455-32.528
					c-1.094-10.829-3.066-22.212-10.119-30.502C496.823,431.68,489.82,428.024,482.386,425.922z"/>
				<path style="fill:#C98165;" d="M447.648,396.876c0.066,0.443,0.161,0.918,0.489,1.223c0.447,0.416,1.141,0.362,1.746,0.282
					c4.671-0.618,9.343-1.236,14.014-1.854c0.572-0.076,1.186-0.171,1.602-0.571c0.295-0.284,0.446-0.681,0.588-1.065
					c0.896-2.418,1.791-4.836,2.687-7.254c1.625-4.388,3.159-9.791-0.823-13.386c-2.763-2.494-6.985-3.56-10.405-1.949
					C449.472,376.105,446.457,388.94,447.648,396.876z"/>
				<path style="fill:#182023;" d="M449.666,374.584c0.007,0.04,1.324,8.082,5.256,12.576c1.502-4.88,1.502-4.88,1.502-4.88
					s4.505,1.689,2.816,4.88c-1.689,3.191-3.191,2.816-3.191,2.816l4.693,24.777l24.777-2.253c0,0-5.444-7.133-8.822-15.767
					c-1.277-3.264-1.964-7.33-2.057-10.833c-0.082-3.069,0.513-5.923-0.876-8.896c-1.329-2.844-3.939-4.964-7.073-3.791
					c-1.914-3.067-5.627-4.56-9.156-4.18C455.557,369.247,449.194,371.693,449.666,374.584z"/>
			</g>
			<g>
				<polygon style="fill:#C98165;" points="108.134,421.323 105.694,391.665 113.578,390.539 130.659,416.067 				"/>
				<polygon style="fill:#3A4989;" points="176.366,491.431 183.968,509.169 104.005,513.111 				"/>
				<path style="fill:#C98165;" d="M167.167,376.293l-1.323-24.751l-3.14-3.021l2.268-2.866c-1.671-4.063-1.671-4.063-1.671-4.063
					s4.533-1.516,7.183,2.556c2.65,4.071,1.721,6.393,1.721,6.393l8.765,26.31L167.167,376.293z"/>
				<path style="fill:#182023;" d="M89.903,422.039c4.977-3.714,10.351-6.901,15.97-9.523c8.695-4.059,17.972-6.799,27.423-8.407
					c11.168-1.9,19.779-1.314,33.294-1.314c0.848,0-0.229-10.862-0.274-11.742c-0.3-5.88-0.817-11.748-1.494-17.596
					c-0.152-1.313,12.599-0.804,13.796-0.563c3.654,0.738,4.12,6.153,6.194,15.486c3.942,17.738,5.134,23.869,4.786,34.632
					c-0.376,11.638-18.583,16.612-28.813,19.334l19.521,50.775c0,0-19.146,13.797-48.053,18.301
					c-24.281,3.784-32.661,1.502-32.661,1.502l-5.256-51.056c0,0-7.711,13.007-9.401,24.269c-1.804,12.025-1.689,27.03-1.689,27.03
					l-22.525,2.252c0,0-3.207-16.838,1.126-47.302c1.754-12.331,7.457-25.568,15.678-34.779
					C81.255,429.161,85.417,425.386,89.903,422.039z"/>
				<path style="fill:#C98165;" d="M106.777,393.578l11.756-2.123c0,0,0.327-5.878-1.143-11.756
					c-1.47-5.878-5.878-12.573-13.389-10.287C96.49,371.698,91.755,385.903,106.777,393.578z"/>
				<path style="fill:#182023;" d="M111.325,378.901c0,0-3.942-0.188-2.065,4.129c1.877,4.317,4.693,2.253,4.693,2.253
					c0.196,4.5-2.826,8.418-7.693,7.889c-2.154-0.235-4.119-1.367-5.79-2.747c-6.086-5.028-5.466-10.144-5.476-17.155
					c-0.001-0.937-2.816,0.188-2.816,0.188l5.256-3.566l-3.754,0.188c0,0,5.068-3.754,7.508-3.191
					c2.44,0.563-3.566-1.689-3.566-1.689s6.382-2.816,10.136,0.563c3.754,3.379,5.631,6.194,5.631,6.194l-0.751,4.317l1.502,5.256
					L111.325,378.901z"/>
			</g>
		</g>
	</g>
</g>
</svg>
